<svg xmlns="http://www.w3.org/2000/svg" version="1.1" xmlns:xlink="http://www.w3.org/1999/xlink" xmlns:svgjs="http://svgjs.com/svgjs" width="35" height="35" x="0" y="0" viewBox="0 0 511.996 511.996" style="enable-background:new 0 0 512 512" xml:space="preserve" class=""><g><path xmlns="http://www.w3.org/2000/svg" d="m511.688 226.171c-12.721-96.554-123.451-170.203-255.69-170.203-132.139 0-242.97 73.604-255.691 170.202-2.239 16.997 7.976 33.231 24.324 38.729-.722 2.042-1.135 4.228-1.135 6.514v15.088c0 3.044.717 5.917 1.959 8.49-9.597 5.307-16.112 15.532-16.112 27.254v20.112c0 10.027 4.771 18.957 12.157 24.652-1.242 1.068-2.422 2.219-3.517 3.466-6.595 7.515-9.636 17.476-8.345 27.328 1.155 8.82 3.208 17.643 6.101 26.222 6.454 19.141 24.417 32.002 44.698 32.002h178.06c4.143 0 7.5-3.358 7.5-7.5s-3.357-7.5-7.5-7.5h-178.06c-13.839 0-26.089-8.759-30.484-21.794-2.582-7.657-4.412-15.522-5.441-23.378-.741-5.654.944-11.153 4.746-15.486 3.842-4.377 9.382-6.888 15.2-6.888h177.012c3.117 3.212 6.058 6.461 8.486 9.305 5.851 6.856 14.372 10.794 23.379 10.804h.033c16.421 0 22.909-10.69 31.63-20.065.014-.015.027-.029.041-.044h182.497c5.819 0 11.36 2.51 15.201 6.888 3.802 4.333 5.487 9.833 4.746 15.486-1.03 7.858-2.861 15.724-5.442 23.378-4.396 13.036-16.646 21.794-30.485 21.794h-178.059c-4.143 0-7.5 3.358-7.5 7.5s3.357 7.5 7.5 7.5h178.059c20.281 0 38.244-12.86 44.698-32.001 2.893-8.576 4.945-17.398 6.103-26.222 1.291-9.854-1.75-19.815-8.345-27.33-1.096-1.25-2.28-2.402-3.524-3.472 4.793-3.695 8.539-8.779 10.562-14.821 1.314-3.928-.804-8.178-4.731-9.493-3.931-1.313-8.178.804-9.493 4.732-2.214 6.616-8.361 11.061-15.296 11.061-7.79 0-163.707 0-171.503 0 28.514-26.557 63.835-48.564 102.459-52.361h69.045c6.935 0 13.081 4.445 15.296 11.061 1.315 3.928 5.562 6.047 9.493 4.732 3.928-1.315 6.046-5.565 4.731-9.493-3.195-9.544-10.655-16.741-19.826-19.752.645-1.942 1.008-4.011 1.008-6.167v-15.088c0-1.758-.254-3.454-.69-5.077 19.288-3.087 32.681-20.921 30.145-40.165zm-126.723-106.827-9.244-13.29c-2.963-4.259-2.462-8.96-.304-12.399 7.145 2.925 14.32 6.241 20.321 9.319-.342 1.076-.853 2.111-1.527 3.08zm-166.154-24.937c1.979 3.787 1.703 8.141-.736 11.647l-9.246 13.29-9.245-13.29c-2.439-3.507-2.715-7.862-.736-11.648 4.221-8.08 15.745-8.07 19.963.001zm-88.805 11.647-9.246 13.29c-.243-.349-9.31-13.371-9.537-13.728 6.814-3.669 13.943-7.084 20.138-9.759 1.112 3.058 1.031 6.766-1.355 10.197zm199.44 160.741c2.504 0 4.619 2.115 4.619 4.619v15.088c0 2.504-2.115 4.619-4.619 4.619h-153.168c-2.504 0-4.619-2.115-4.619-4.619v-15.088c0-2.504 2.115-4.619 4.619-4.619zm-64.211 106.343c-2.901 3.384-7.193 5.453-11.867 5.453-.006 0-.012 0-.017 0-4.797-.005-9.184-2.258-11.985-5.541-28.893-33.858-65.186-54.747-93.041-66.929h200.706c-32.116 15.276-60.955 40.36-83.796 67.017zm-108.576-101.724v15.088c0 1.354.177 3.081.549 4.619-10.716 0-101.575 0-114.094 0-2.504 0-4.619-2.115-4.619-4.619v-15.088c0-2.504 2.115-4.619 4.619-4.619h114.094c-.371 1.535-.549 3.29-.549 4.619zm-116.192 87.068c-8.891 0-16.124-7.233-16.124-16.124v-20.112c0-8.891 7.233-16.125 16.124-16.125h62.29c.684.163 1.5.381 2.144.55 12.004 3.19 59.132 17.318 100.391 51.811-8.48 0-156.323 0-164.825 0zm308.05-67.361c.371-1.536.549-3.29.549-4.619v-15.088c0-1.354-.177-3.081-.549-4.619h114.095c2.504 0 4.619 2.115 4.619 4.619v15.088c0 2.504-2.115 4.619-4.619 4.619-17.308 0-101.068 0-114.095 0zm127.294-39.326c-21.302 0-418.242 0-439.626 0-12.454 0-22.694-10.858-21.007-23.665 6.441-48.9 40.498-88.626 83.058-115.005.305.505.623 1.005.964 1.495h.001l10.43 14.992c5.389 7.746 16.87 7.745 22.258 0l10.431-14.993c5.152-7.406 6.06-16.452 2.995-24.365 16.376-6.075 33.657-10.776 51.534-14.014-13.915 7.123-18.804 25.117-9.579 38.379l10.43 14.992c5.389 7.746 16.87 7.745 22.258 0l10.43-14.992c11.073-15.914 1.643-37.799-17.279-40.899 26.816-3.463 54.888-3.751 83.124-.338-20.902.522-32.815 24.101-20.894 41.237l10.43 14.992c5.389 7.746 16.87 7.745 22.258 0l10.43-14.992c10.235-14.711 3.025-34.988-13.915-40.119 19.676 2.891 38.721 7.531 56.736 13.808-3.933 8.275-3.422 18.331 2.129 26.311l10.429 14.992h.001c5.389 7.746 16.87 7.745 22.258 0l10.431-14.993c.972-1.398 1.781-2.868 2.458-4.381 44.447 26.154 81.114 66.878 87.834 117.892 1.688 12.818-8.564 23.666-21.007 23.666zm-178.915-163.435c4.272 0 8.004 2.26 9.982 6.047 1.979 3.786 1.703 8.14-.736 11.647l-9.246 13.29-9.245-13.29c-5.205-7.483.138-17.694 9.245-17.694z" fill="#000000" data-original="#000000" class=""></path><path xmlns="http://www.w3.org/2000/svg" d="m175.923 143.181c-5.389-7.746-16.87-7.745-22.258 0l-10.431 14.993c-5.604 8.056-6.261 18.463-1.717 27.16 9.817 18.785 36.744 18.775 46.553-.001 4.545-8.697 3.887-19.104-1.718-27.16zm-1.147 35.206c-4.223 8.08-15.746 8.071-19.964 0-1.979-3.787-1.703-8.141.735-11.647l9.246-13.29 9.246 13.29c2.44 3.506 2.716 7.86.737 11.647z" fill="#000000" data-original="#000000" class=""></path><path xmlns="http://www.w3.org/2000/svg" d="m263.991 143.181c-5.389-7.746-16.87-7.745-22.258 0l-10.431 14.993c-5.604 8.056-6.261 18.463-1.717 27.16 9.817 18.785 36.743 18.774 46.554 0 4.544-8.698 3.886-19.104-1.719-27.16zm-1.146 35.206c-4.22 8.077-15.745 8.074-19.964 0-1.979-3.787-1.703-8.141.735-11.647l9.246-13.29 9.246 13.29c2.44 3.507 2.715 7.861.737 11.647z" fill="#000000" data-original="#000000" class=""></path><path xmlns="http://www.w3.org/2000/svg" d="m352.06 143.181c-5.388-7.745-16.868-7.746-22.259 0l-10.428 14.992c-5.604 8.056-6.263 18.463-1.719 27.16 9.817 18.786 36.743 18.775 46.554 0 4.544-8.698 3.886-19.104-1.719-27.16zm-1.147 35.206c-4.22 8.077-15.745 8.074-19.964 0-1.979-3.787-1.703-8.141.737-11.648l9.244-13.29 9.246 13.29c2.44 3.508 2.716 7.862.737 11.648z" fill="#000000" data-original="#000000" class=""></path></g></svg>