<svg xmlns="http://www.w3.org/2000/svg" version="1.1" xmlns:xlink="http://www.w3.org/1999/xlink" xmlns:svgjs="http://svgjs.com/svgjs" width="35" height="35" x="0" y="0" viewBox="0 0 512 512" style="enable-background:new 0 0 512 512" xml:space="preserve" class=""><g><path xmlns="http://www.w3.org/2000/svg" d="m375.895 366c0-44.94-53.474-70-100-70-46.727 0-100 25.191-100 70 0 44.938 53.483 70 100 70 46.789 0 100-25.228 100-70zm-100 50c-33.287 0-80-17.029-80-50 0-32.925 46.621-50 80-50 33.29 0 80 17.024 80 50 0 32.927-46.616 50-80 50z" fill="#000000" data-original="#000000"></path><path xmlns="http://www.w3.org/2000/svg" d="m37.724 90.469c-15.636 15.635-15.639 40.933 0 56.573 10.568 10.568 26.045 14.366 40.384 9.909 5.637-1.748 12.583.415 17.685 5.509l26.683 26.692c-3.837 11.572-5.447 24.064-4.783 36.848-15.093 0-46.688 0-61.688 0-5.523 0-10 4.477-10 10s4.477 10 10 10h32.027l25.982 239.247c1.668 15.252 14.492 26.753 29.83 26.753h87.16c5.523 0 10-4.477 10-10s-4.477-10-10-10h-87.16c-5.115 0-9.393-3.838-9.948-8.919l-25.747-237.081h335.49l-25.747 237.083c-.551 5.084-4.823 8.917-9.938 8.917h-86.95c-5.523 0-10 4.477-10 10s4.477 10 10 10h86.95c15.348 0 28.168-11.505 29.821-26.76l25.982-239.24h12.248c5.523 0 10-4.477 10-10s-4.477-10-10-10c-15.183 0-27.111 0-40.962 0-4.509-40.01-26.809-74.218-59.038-90.378v-43.802c0-7.216 3.376-13.652 8.607-16.4 13.196-6.944 21.393-20.516 21.393-35.419 0-22.056-17.944-40-40-40-11.934 0-22.665 5.254-30 13.57-7.336-8.317-18.066-13.571-30.001-13.571-22.056 0-40 17.944-40 40 0 14.89 8.195 28.461 21.399 35.422 5.225 2.745 8.601 9.177 8.601 16.388v43.694c-6.952 3.464-13.509 7.824-19.606 13.027-30.202-20.361-66.31-26.293-97.354-15.952l-26.684-26.675c-5.1-5.107-7.265-12.051-5.516-17.687 4.423-14.235.627-29.629-9.912-40.182-15.596-15.583-40.971-15.582-56.572.006-8.427 8.435-12.296 19.73-11.608 30.792-11.654-.748-22.831 3.431-31.028 11.636zm377.178 135.531h-157.99c5.832-43.003 37.206-80 78.983-80 40.43 0 73.051 35.108 79.007 80zm-128.898-186c0-11.028 8.972-20 20-20s20 8.972 20 20c0 5.523 4.477 10 10 10s10-4.477 10-10c0-11.028 8.972-20 20-20s20 8.972 20 20c0 7.455-4.103 14.245-10.7 17.717-11.905 6.253-19.3 19.321-19.3 34.103v36.526c-6.581-1.544-13.302-2.346-20.11-2.346-6.734 0-13.383.786-19.89 2.296v-36.486c0-14.775-7.395-27.839-19.287-34.086-6.608-3.484-10.713-10.276-10.713-17.724zm-23.748 123.186c-13.847 17.383-22.815 39.434-25.503 62.814h-99.036c-1.358-21.283 4.984-42.307 20.427-57.749 27.123-27.123 70.702-26.073 104.112-5.065zm-181.896-58.578c3.904 3.906 10.235 3.91 14.142.006 3.907-3.903 3.91-10.235.006-14.142-7.794-7.801-7.794-20.494-.006-28.288 7.801-7.794 20.493-7.794 28.286-.008 5.271 5.277 7.17 12.982 4.955 20.111-3.981 12.833.028 27.298 10.471 37.755l21.571 21.564c-5.708 3.549-10.995 7.716-15.782 12.503-4.784 4.785-8.95 10.072-12.501 15.783l-21.571-21.578c-10.451-10.436-24.916-14.447-37.753-10.464-7.121 2.212-15.093.269-20.312-4.951-7.818-7.817-7.825-20.463.003-28.291 7.797-7.803 20.665-7.832 28.491 0z" fill="#000000" data-original="#000000"></path><circle xmlns="http://www.w3.org/2000/svg" cx="276.004" cy="502" r="10" fill="#000000" data-original="#000000"></circle></g></svg>