<svg xmlns="http://www.w3.org/2000/svg" version="1.1" xmlns:xlink="http://www.w3.org/1999/xlink" xmlns:svgjs="http://svgjs.com/svgjs" width="35" height="35" x="0" y="0" viewBox="0 0 512 512" style="enable-background:new 0 0 512 512" xml:space="preserve" class=""><g><g xmlns="http://www.w3.org/2000/svg"><g><path d="m89.438 247.901c.401.064.8.095 1.194.095 3.62 0 6.807-2.627 7.396-6.316l4.699-29.37h17.63c4.701 0 8.526 3.825 8.526 8.526v60.385c0 12.619 10.266 22.885 22.885 22.885 12.618 0 22.885-10.266 22.885-22.885v-29.74c0-7.755 6.064-14.281 13.52-14.546 3.855-.133 7.501 1.258 10.266 3.926 2.767 2.67 4.291 6.259 4.291 10.103v6.778c0 15.022 12.221 27.244 27.244 27.244 15.022 0 27.244-12.222 27.244-27.244v-36.906c0-4.701 3.825-8.526 8.526-8.526h55.385c4.701 0 8.525 3.825 8.525 8.526v73.591c0 13.679 11.129 24.808 24.808 24.808s24.808-11.129 24.808-24.808v-20.027c0-4.142-3.358-7.5-7.5-7.5s-7.5 3.358-7.5 7.5v20.026c0 5.408-4.4 9.808-9.808 9.808s-9.808-4.4-9.808-9.808v-73.591c0-12.972-10.554-23.526-23.525-23.526h-55.385c-12.972 0-23.526 10.554-23.526 23.526v36.906c0 6.751-5.493 12.244-12.244 12.244s-12.244-5.493-12.244-12.244v-6.778c0-7.952-3.152-15.373-8.875-20.896-5.721-5.521-13.258-8.404-21.216-8.123-15.432.549-27.986 13.798-27.986 29.536v29.74c0 4.348-3.537 7.885-7.885 7.885s-7.885-3.537-7.885-7.885v-60.385c0-12.972-10.553-23.526-23.526-23.526h-15.23l3.703-23.141c3.167-19.798 20.019-34.167 40.068-34.167h25.919c4.142 0 7.5-3.358 7.5-7.5s-3.358-7.5-7.5-7.5h-25.919c-27.461 0-50.541 19.681-54.879 46.797l-10.802 67.512c-.654 4.09 2.131 7.937 6.221 8.591z" fill="#000000" data-original="#000000"></path><path d="m500.846 401.664c-4.187-6.233-11.169-9.954-18.678-9.954h-29.003l-35.185-219.91c-4.338-27.116-27.418-46.797-54.879-46.797h-26.101c-4.142 0-7.5 3.358-7.5 7.5s3.358 7.5 7.5 7.5h26.102c20.049 0 36.9 14.369 40.068 34.167l3.702 23.141h-19.076c-12.972 0-23.526 10.554-23.526 23.526v21.044c0 4.142 3.358 7.5 7.5 7.5s7.5-3.358 7.5-7.5v-21.044c0-4.701 3.825-8.526 8.526-8.526h21.476l28.703 179.4h-363.95l18.556-115.976c.654-4.09-2.131-7.937-6.221-8.591-4.091-.655-7.937 2.131-8.591 6.221l-18.935 118.345h-29.002c-7.509 0-14.491 3.721-18.678 9.954s-4.991 14.104-2.151 21.055l7.618 18.647c8.102 19.832 27.179 32.645 48.601 32.645h23.439v18.489c0 10.752 8.748 19.5 19.5 19.5h295.679c10.752 0 19.5-8.748 19.5-19.5v-18.489h23.439c21.422 0 40.499-12.814 48.6-32.645l7.618-18.647c2.84-6.951 2.036-14.822-2.151-21.055zm-11.735 15.382-7.617 18.647c-5.787 14.165-19.413 23.318-34.715 23.318h-84.579c-4.143 0-7.5 3.358-7.5 7.5s3.357 7.5 7.5 7.5h46.14v18.489c0 2.481-2.019 4.5-4.5 4.5h-295.679c-2.481 0-4.5-2.019-4.5-4.5v-18.489h222.539c4.142 0 7.5-3.358 7.5-7.5s-3.358-7.5-7.5-7.5h-260.979c-15.302 0-28.928-9.153-34.715-23.318l-7.618-18.647c-.96-2.352-.699-4.909.717-7.018 1.416-2.108 3.686-3.318 6.226-3.318h452.337c2.54 0 4.81 1.209 6.226 3.318 1.417 2.108 1.678 4.666.717 7.018z" fill="#000000" data-original="#000000"></path><path d="m160.124 106.797 13.994 5.394c4.387 1.691 8.958 2.534 13.521 2.534.361 0 .722-.012 1.083-.024.423 1.204.883 2.398 1.422 3.566l.148.321c9.614 20.843 30.05 33.825 52.745 33.824 1.209 0 2.428-.037 3.648-.112l45.32-2.769c9.299-.568 17.595-5.34 22.761-13.093 5.165-7.753 6.375-17.248 3.318-26.048l-14.898-42.89c-7.933-22.838-28.67-38.17-52.837-39.06l-.346-.013c-1.294-.047-2.581-.011-3.863.063-1.76-4.596-4.411-8.849-7.917-12.514l-10.368-10.836c-3.958-4.138-9.674-5.934-15.288-4.812-5.615 1.125-10.196 4.986-12.256 10.329l-5.395 13.994c-.842 2.185-1.473 4.416-1.895 6.668l-11.065-.245c-5.726-.133-11.038 2.643-14.213 7.408-3.175 4.766-3.685 10.735-1.363 15.97l4.493 10.131c-1.917 1.254-3.738 2.685-5.43 4.303l-10.837 10.368c-4.138 3.958-5.937 9.674-4.812 15.289 1.125 5.613 4.987 10.195 10.33 12.254zm89.326-63.38h.007l.346.013c17.933.661 33.325 12.041 39.213 28.992l14.899 42.891c1.503 4.328.908 8.997-1.632 12.81-2.54 3.812-6.62 6.159-11.192 6.438l-45.32 2.769c-17.913 1.088-34.342-8.729-41.858-25.023l-.148-.321c-3.836-8.316-3.064-18.218 2.014-25.839l20.6-30.919c4.901-7.356 13.306-11.828 22.114-11.828.318-.001.637.005.957.017zm-35.143-27.365c.267-.694.803-.936 1.206-1.016.106-.021.225-.036.352-.036.355 0 .774.113 1.152.509l10.368 10.837c1.658 1.734 2.998 3.686 4.007 5.786-4.229 1.914-8.131 4.527-11.524 7.735-3.563-2.922-7.587-5.143-11.909-6.572.243-1.095.543-2.182.954-3.248zm-34.081 30.746c.223-.335.638-.729 1.354-.729h.044l14.994.332c5.226.116 10.134 1.996 14.063 5.332l-14.172 21.27c-4.592-2.341-8.218-6.147-10.337-10.925l-6.081-13.709c-.301-.68-.093-1.229.135-1.571zm-15.25 43.293 10.837-10.367c.825-.789 1.703-1.5 2.62-2.143 2.985 3.443 6.588 6.305 10.662 8.471-1.654 4.366-2.563 8.972-2.701 13.612-2.326-.123-4.643-.606-6.881-1.469l-13.994-5.394c-.693-.268-.936-.803-1.016-1.206-.081-.402-.064-.99.473-1.504z" fill="#000000" data-original="#000000"></path><path d="m226.255 98.952c-2.579 3.87-1.532 9.097 2.338 11.676 3.87 2.578 9.097 1.531 11.676-2.339 2.578-3.87 1.531-9.097-2.338-11.676-3.87-2.578-9.098-1.531-11.676 2.339z" fill="#000000" data-original="#000000"></path><path d="m249.087 79.869c3.87 2.578 9.097 1.531 11.676-2.338 2.579-3.87 1.532-9.097-2.338-11.676-3.87-2.578-9.097-1.531-11.676 2.339-2.579 3.869-1.532 9.097 2.338 11.675z" fill="#000000" data-original="#000000"></path><path d="m261.101 99.963c-2.578 3.87-1.531 9.097 2.338 11.676 3.87 2.578 9.098 1.531 11.676-2.338 2.579-3.87 1.532-9.097-2.338-11.676s-9.097-1.532-11.676 2.338z" fill="#000000" data-original="#000000"></path></g></g></g></svg>