<svg xmlns="http://www.w3.org/2000/svg" version="1.1" xmlns:xlink="http://www.w3.org/1999/xlink" xmlns:svgjs="http://svgjs.com/svgjs" width="35" height="35" x="0" y="0" viewBox="0 0 512 512" style="enable-background:new 0 0 512 512" xml:space="preserve" class=""><g><g xmlns="http://www.w3.org/2000/svg" id="Layer_14" data-name="Layer 14"><path d="m77.707 398.008c17.553 6.716 42.386 12.916 74.241 12.915a274.341 274.341 0 0 0 51.883-5.148c13.439 25.825 37.969 48.413 63.648 58.289 17.6 6.769 42.522 13.022 74.513 13.022a284.66 284.66 0 0 0 69.15-8.965 110.745 110.745 0 0 0 72.7-58.614 106.991 106.991 0 0 0 2.2-90.192q-.642-1.471-1.329-2.938a160.9 160.9 0 0 0 -16.634-27.743 112.883 112.883 0 0 0 34.8-54.782 106.308 106.308 0 0 0 -4.713-72.1q-.642-1.47-1.329-2.938c-13.514-28.862-35.748-53.571-64.3-71.457-11.876-7.44-16.8-17.847-21.146-27.03-1.044-2.207-2.1-4.429-3.245-6.549-.075-.15-.153-.3-.239-.438-3.89-7.051-8.917-12.845-18.371-12.845a42.256 42.256 0 0 0 -10.491 1.2 23.718 23.718 0 0 0 -16.314-6.8c-13.654 0-28.308 18-38.2 33.1-10.991 16.78-30.131 27.433-49.181 36.446-23.439 11.09-46.309 34.518-59.293 60.1a104.345 104.345 0 0 1 -6.84-12.81c-1.044-2.206-2.1-4.427-3.243-6.546-.076-.152-.156-.3-.244-.445-3.889-7.049-8.917-12.842-18.369-12.842a38.881 38.881 0 0 0 -13.3 2.049c-4.323-6.52-10.053-7.654-13.509-7.654-7.536 0-20.28 5.742-38.2 33.1-10.968 16.75-30 27.363-48.941 36.338-27.433 13-48.755 35.121-60.038 62.286-11.587 27.913-11.216 55.511 1.113 82.024 12.322 26.495 34.774 47.082 63.221 57.967zm396.134-76.541q.621 1.326 1.2 2.651a95.016 95.016 0 0 1 -1.972 80.094 98.76 98.76 0 0 1 -64.839 52.267c-63.624 15.911-109.315 6.816-136.443-3.616-21.753-8.365-43.361-27.823-55.718-49.69q2.495-.584 5.025-1.214a110.741 110.741 0 0 0 72.7-58.614 107.781 107.781 0 0 0 11.081-45.631c31.474-21.625 41.118-45.709 48.2-63.423 3.279-8.2 5.761-14.076 8.974-17.99 2.633 8.972 1.945 21.185-2.022 34.224-5.642 18.547-17.546 37.9-34.424 55.971a61.39 61.39 0 0 0 -13.446 21.923c-4.658 13.541-3.4 25.719 3.629 35.218a6 6 0 1 0 9.644-7.14c-4.64-6.268-5.287-14.4-1.925-24.174a49.471 49.471 0 0 1 10.868-17.636c38.229-40.926 46.747-81.3 38.363-104.313a31.734 31.734 0 0 1 4.671-.316c3.166 0 5.091 1.7 7.554 6.084 1.25 6.512 8.626 50.737-13.986 83.56-13.784 20.007-18.815 40.066-15.381 61.322a6 6 0 0 0 5.916 5.044 6.1 6.1 0 0 0 .965-.078 6 6 0 0 0 4.966-6.88c-2.918-18.057 1.471-35.262 13.416-52.6 14.679-21.306 18.252-46.115 18.336-64.878a59.009 59.009 0 0 0 4.925 5.575c2.583 3.7 25.119 38.2-7.895 70.254a6 6 0 0 0 8.359 8.61c21.8-21.172 23.1-43.556 20.349-58.606-.38-2.078-.846-4.071-1.369-5.971a159.061 159.061 0 0 1 31.37 29.622c.043.061.081.124.127.183.094.123.2.234.3.347a150.323 150.323 0 0 1 18.482 29.821zm-175.951-63.644a95.122 95.122 0 0 0 24.557-25.7c17.917-27.358 27.747-27.673 28.157-27.673a8.667 8.667 0 0 1 4.736 1.4c-6.167 5.908-9.648 14.588-13.4 23.978-6.354 15.884-14.116 35.26-37.769 53.554a106.4 106.4 0 0 0 -6.281-25.559zm-17.408-142.535c19.646-9.3 41.436-21.4 54.09-40.725 17.916-27.358 27.747-27.673 28.157-27.673a10.438 10.438 0 0 1 4.629 1.11c-5.2 4.932-8.1 11.75-11.076 18.776-6.372 15.027-14.3 33.729-47.131 50.518-53.123 27.166-43.2 64.492-42.755 66.067a6 6 0 1 0 11.556-3.232c-.318-1.2-7.284-29.678 36.663-52.152 36.711-18.773 45.961-40.588 52.715-56.516 2.858-6.739 4.914-11.577 8.194-14.681 4.888 9.188 6.981 24.137 1.306 39.83a56.392 56.392 0 0 1 -26.556 30.111c-35.526 19.227-41.2 37.333-41.426 46.415a6 6 0 0 0 12 .294c.267-10.874 13.4-24.39 35.142-36.156a68.366 68.366 0 0 0 32.129-36.583c5.971-16.512 5.379-34.651-1.232-48.113.837-.052 1.718-.079 2.651-.079 3.167 0 5.092 1.7 7.556 6.086a139.6 139.6 0 0 1 .681 44.826c-4.932 31.781-21.169 54.012-48.261 66.077a6 6 0 1 0 4.882 10.962c30.736-13.688 49.857-39.825 55.3-75.588a143.862 143.862 0 0 0 1.589-20.843 58.97 58.97 0 0 0 4.968 5.628c2.583 3.7 25.118 38.2-7.895 70.254a6 6 0 1 0 8.359 8.609c21.8-21.171 23.1-43.555 20.349-58.6-.38-2.079-.846-4.072-1.369-5.971 22.222 16 39.11 36.124 50.277 59.974q.621 1.326 1.2 2.651c16.781 38.426 5.533 84.889-26.6 112.709a176.818 176.818 0 0 0 -40.164-34.353c-11.876-7.44-16.8-17.847-21.146-27.03-1.044-2.207-2.1-4.43-3.246-6.551-.074-.148-.152-.294-.238-.434-3.889-7.052-8.917-12.847-18.371-12.847a38.866 38.866 0 0 0 -11.093 1.458 21.1 21.1 0 0 0 -15.712-7.064c-13.654 0-28.307 18-38.2 33.1a83.652 83.652 0 0 1 -19.531 21.034c-13.645-27.3-35.173-50.7-62.515-67.826a45.3 45.3 0 0 1 -5.764-4.282c11.199-24.724 33.689-48.687 55.888-59.19zm-256.019 147.328c10.137-24.416 29.352-44.316 54.095-56.045 19.538-9.26 41.213-21.325 53.841-40.608 17.917-27.358 27.747-27.672 28.157-27.672a4.3 4.3 0 0 1 3.484 2.252c-4.5 4.814-7.177 11.136-9.93 17.63-6.372 15.028-14.3 33.729-47.131 50.518-53.123 27.166-43.2 64.492-42.756 66.067a6 6 0 1 0 11.542-3.283c-.083-.291-7.767-29.372 36.678-52.1 36.711-18.773 45.961-40.588 52.715-56.517.943-2.223 1.8-4.239 2.638-6.055.9 25.674-11.906 67.86-35.933 87.439-37.8 30.8-35.658 51.388-35.29 53.634a6 6 0 0 0 11.842-1.941c-.025-.151-1.035-16.264 31.028-42.391 31.287-25.494 44.871-80.7 38.993-108.428a27.246 27.246 0 0 1 8.925-1.219c3.168 0 5.093 1.7 7.559 6.092a138.838 138.838 0 0 1 .732 44.468c-4.862 31.967-21.117 54.317-48.315 66.43a6 6 0 1 0 4.882 10.962c30.736-13.688 49.858-39.826 55.3-75.588a143.875 143.875 0 0 0 1.589-20.844 58.888 58.888 0 0 0 4.964 5.625c2.57 3.68 25.134 38.188-7.892 70.258a6 6 0 1 0 8.36 8.609c21.8-21.171 23.1-43.556 20.348-58.605-.38-2.079-.846-4.072-1.369-5.972 22.222 16 39.11 36.123 50.276 59.97q.621 1.327 1.2 2.656a95.006 95.006 0 0 1 -1.972 80.093 98.758 98.758 0 0 1 -64.838 52.267c-63.476 15.874-109.096 6.849-136.185-3.518-25.518-9.764-45.629-28.168-56.628-51.82-10.856-23.335-11.161-47.68-.909-72.364z" fill="#000000" data-original="#000000" class=""></path></g></g></svg>