<svg xmlns="http://www.w3.org/2000/svg" xmlns:xlink="http://www.w3.org/1999/xlink" width="278" height="88" viewBox="0 0 278 88">
  <defs>
    <clipPath id="clip-path">
      <rect id="Rectangle_50" data-name="Rectangle 50" width="56" height="57" transform="translate(392 5020)" fill="#fff" stroke="#707070" stroke-width="1"/>
    </clipPath>
  </defs>
  <g id="appstore" transform="translate(-19027 -5816)">
    <g id="Rectangle_49" data-name="Rectangle 49" transform="translate(19027 5816)" fill="#272525" stroke="#707070" stroke-width="1">
      <rect width="278" height="88" stroke="none"/>
      <rect x="0.5" y="0.5" width="277" height="87" fill="none"/>
    </g>
    <text id="DOWNLOAD_ON" data-name="DOWNLOAD ON" transform="translate(19117 5847)" fill="#fbfbfb" font-size="24" font-family="SegoeUI, Segoe UI"><tspan x="0" y="0">DOWNLOAD ON</tspan></text>
    <text id="App_Store" data-name="App Store" transform="translate(19125 5883)" fill="#fbfbfb" font-size="32" font-family="SegoeUI-Bold, Segoe UI" font-weight="700"><tspan x="0" y="0">App Store</tspan></text>
    <g id="Mask_Group_2" data-name="Mask Group 2" transform="translate(18646 811)" clip-path="url(#clip-path)">
      <g id="apple" transform="translate(391.5 5020)">
        <g id="Group_43" data-name="Group 43">
          <g id="Group_42" data-name="Group 42">
            <path id="Path_138" data-name="Path 138" d="M40.165,1.151,40.1,0,38.959.123C38.847.135,27.77,1.47,27.011,13.854l-.076,1.24,1.24-.084C28.3,15,40.846,14,40.165,1.151ZM38,2.534c-.208,7.463-6.015,9.539-8.68,10.1A11.533,11.533,0,0,1,38,2.534Z" fill="#f3f3f3"/>
            <path id="Path_139" data-name="Path 139" d="M50.841,40.946l-.7-.226A10.088,10.088,0,0,1,48.85,21.985l1.061-.512-.592-1.018A12.848,12.848,0,0,0,41.7,14.871c-3.966-1.015-8.426-.117-13.259,2.671C26.4,16.3,19.6,12.72,14.19,16.309c-1.059.585-12.279,7.307-6.439,25.444.171.406,4.243,9.946,9.062,13.519,1.3,1.242,4.624,2.794,8.423.2.658-.272,5.062-1.967,7.856.019A8.885,8.885,0,0,0,37.826,57a5.678,5.678,0,0,0,4.212-1.769,33.9,33.9,0,0,0,8.8-12.974l.082-.223ZM40.58,53.6l-.084.08c-2.393,2.513-6.022.109-6.157.02a7.869,7.869,0,0,0-4.632-1.346,14.74,14.74,0,0,0-5.448,1.161l-.178.1c-3.3,2.3-5.551.276-5.79.046l-.129-.11C13.8,50.376,9.8,41,9.794,40.993,4.328,24,14.8,18.444,15.245,18.219l.12-.071c5.072-3.4,12.362,1.524,12.434,1.573l.582.4.6-.363c4.54-2.745,8.637-3.678,12.177-2.771a10.749,10.749,0,0,1,5.621,3.647,12.262,12.262,0,0,0,1.66,21.78A32.331,32.331,0,0,1,40.58,53.6Z" fill="#f3f3f3"/>
          </g>
        </g>
      </g>
    </g>
  </g>
</svg>
